<svg xmlns="http://www.w3.org/2000/svg" viewBox="0 0 128 128" width="128" height="128">
  <!-- Python: two interlinked snake/shield shapes -->
  <!-- Top shape (left-anchored) -->
  <path d="
    M 64,14
    C 44,14 34,22 34,36
    L 34,48 L 64,48 L 64,52 L 24,52
    C 14,52 10,60 10,72
    C 10,84 16,94 28,94
    L 40,94 L 40,80
    C 40,68 50,60 64,60
    C 78,60 88,52 88,40
    L 88,36
    C 88,22 80,14 64,14 Z
    M 52,34 C 55.3,34 58,36.7 58,40 C 58,43.3 55.3,46 52,46 C 48.7,46 46,43.3 46,40 C 46,36.7 48.7,34 52,34 Z
  " fill="#C17E00"/>
  <!-- Bottom shape (right-anchored) -->
  <path d="
    M 64,114
    C 84,114 94,106 94,92
    L 94,80 L 64,80 L 64,76 L 104,76
    C 114,76 118,68 118,56
    C 118,44 112,34 100,34
    L 88,34 L 88,48
    C 88,60 78,68 64,68
    C 50,68 40,76 40,88
    L 40,92
    C 40,106 48,114 64,114 Z
    M 76,94 C 72.7,94 70,91.3 70,88 C 70,84.7 72.7,82 76,82 C 79.3,82 82,84.7 82,88 C 82,91.3 79.3,94 76,94 Z
  " fill="#A06700"/>
</svg>
